<?xml version="1.0" encoding="UTF-8" standalone="no"?>
<!-- Created with Inkscape (http://www.inkscape.org/) -->

<svg
   xmlns:dc="http://purl.org/dc/elements/1.1/"
   xmlns:cc="http://creativecommons.org/ns#"
   xmlns:rdf="http://www.w3.org/1999/02/22-rdf-syntax-ns#"
   xmlns:svg="http://www.w3.org/2000/svg"
   xmlns="http://www.w3.org/2000/svg"
   xmlns:xlink="http://www.w3.org/1999/xlink"
   xmlns:sodipodi="http://sodipodi.sourceforge.net/DTD/sodipodi-0.dtd"
   xmlns:inkscape="http://www.inkscape.org/namespaces/inkscape"
   width="512"
   height="512"
   id="svg2"
   version="1.1"
   inkscape:version="0.48.2 r9819"
   sodipodi:docname="wsgize.svg"
   inkscape:export-filename="/Users/lrees/Desktop/wsgistate.png"
   inkscape:export-xdpi="37.604816"
   inkscape:export-ydpi="37.604816">
  <defs
     id="defs4">
    <linearGradient
       y2="309.79909"
       y1="175.80452"
       xlink:href="#linearGradient1502"
       x2="205.01574"
       x1="182.83167"
       id="linearGradient1507"
       gradientTransform="scale(1.0229615,0.97755389)"
       gradientUnits="userSpaceOnUse" />
    <linearGradient
       id="linearGradient1454">
      <stop
         style="stop-color:#000;stop-opacity:1;"
         offset="0"
         id="stop1455" />
      <stop
         style="stop-color:#fff;stop-opacity:1;"
         offset="1"
         id="stop1456" />
    </linearGradient>
    <linearGradient
       id="linearGradient1461">
      <stop
         style="stop-color:#ffffff;stop-opacity:0.0000000;"
         offset="0.0000000"
         id="stop1462" />
      <stop
         style="stop-color:#ffffff;stop-opacity:1.0000000;"
         offset="0.50000000"
         id="stop1464" />
      <stop
         style="stop-color:#ffffff;stop-opacity:0.0000000;"
         offset="1.0000000"
         id="stop1463" />
    </linearGradient>
    <linearGradient
       id="linearGradient1494">
      <stop
         style="stop-color:#9d8f6a;stop-opacity:1.0000000;"
         offset="0.0000000"
         id="stop1495" />
      <stop
         style="stop-color:#ffffff;stop-opacity:1.0000000;"
         offset="0.49619800"
         id="stop1496" />
      <stop
         style="stop-color:#bfb5a5;stop-opacity:1.0000000;"
         offset="0.52539647"
         id="stop1498" />
      <stop
         style="stop-color:#f7f7f7;stop-opacity:1.0000000;"
         offset="1.0000000"
         id="stop1497" />
    </linearGradient>
    <linearGradient
       id="linearGradient1502">
      <stop
         style="stop-color:#000000;stop-opacity:0.0000000;"
         offset="0.0000000"
         id="stop1503" />
      <stop
         style="stop-color:#000000;stop-opacity:0.28125000;"
         offset="1.0000000"
         id="stop1506" />
    </linearGradient>
    <linearGradient
       id="linearGradient1546">
      <stop
         style="stop-color:#000;stop-opacity:1;"
         offset="0.0000000"
         id="stop1547" />
      <stop
         style="stop-color:#9a9a9a;stop-opacity:1.0000000;"
         offset="1.0000000"
         id="stop1548" />
    </linearGradient>
    <linearGradient
       id="linearGradient1551">
      <stop
         style="stop-color:#ffffff;stop-opacity:0.0000000;"
         offset="0.0000000"
         id="stop1552" />
      <stop
         style="stop-color:#ffffff;stop-opacity:1.0000000;"
         offset="1.0000000"
         id="stop1553" />
    </linearGradient>
    <linearGradient
       inkscape:collect="always"
       xlink:href="#linearGradient1502"
       id="linearGradient4712"
       gradientUnits="userSpaceOnUse"
       gradientTransform="scale(1.0307764,0.97014252)"
       x1="179.83599"
       y1="178.66379"
       x2="200.25706"
       y2="302.00962" />
    <linearGradient
       inkscape:collect="always"
       xlink:href="#linearGradient1502"
       id="linearGradient4714"
       gradientUnits="userSpaceOnUse"
       gradientTransform="scale(1.0344279,0.96671791)"
       x1="178.64995"
       y1="179.87529"
       x2="198.41254"
       y2="299.24383" />
    <linearGradient
       inkscape:collect="always"
       xlink:href="#linearGradient1502"
       id="linearGradient4716"
       gradientUnits="userSpaceOnUse"
       gradientTransform="scale(1.0266786,0.97401464)"
       x1="181.35894"
       y1="177.20132"
       x2="202.65994"
       y2="305.86199" />
    <linearGradient
       inkscape:collect="always"
       xlink:href="#linearGradient1502"
       id="linearGradient4718"
       gradientUnits="userSpaceOnUse"
       gradientTransform="scale(1.0229615,0.97755389)"
       x1="182.83167"
       y1="175.80452"
       x2="205.01574"
       y2="309.79909" />
    <linearGradient
       inkscape:collect="always"
       xlink:href="#linearGradient1502"
       id="linearGradient4720"
       gradientUnits="userSpaceOnUse"
       gradientTransform="scale(1.0368908,0.96442174)"
       x1="177.86378"
       y1="181.42771"
       x2="197.19272"
       y2="298.17695" />
    <linearGradient
       inkscape:collect="always"
       xlink:href="#linearGradient1502"
       id="linearGradient4722"
       gradientUnits="userSpaceOnUse"
       gradientTransform="scale(1.0229615,0.97755389)"
       x1="182.83167"
       y1="175.80452"
       x2="205.01574"
       y2="309.79909" />
    <linearGradient
       inkscape:collect="always"
       xlink:href="#linearGradient1454"
       id="linearGradient4724"
       gradientUnits="userSpaceOnUse"
       gradientTransform="matrix(1.0821338,0,0,0.92410015,155.58088,798.62607)"
       x1="55.601124"
       y1="-30.810305"
       x2="40.876814"
       y2="218.58856" />
    <linearGradient
       inkscape:collect="always"
       xlink:href="#linearGradient1546"
       id="linearGradient4726"
       gradientUnits="userSpaceOnUse"
       gradientTransform="matrix(1.3294867,0,0,0.75217,155.58088,798.62607)"
       x1="64.11688"
       y1="47.803506"
       x2="37.547989"
       y2="140.37704" />
    <linearGradient
       inkscape:collect="always"
       xlink:href="#linearGradient1494"
       id="linearGradient4728"
       gradientUnits="userSpaceOnUse"
       gradientTransform="matrix(1.1621146,0,0,0.86050035,155.58088,798.62607)"
       x1="83.123483"
       y1="92.632268"
       x2="77.120084"
       y2="56.941835" />
    <linearGradient
       inkscape:collect="always"
       xlink:href="#linearGradient1461"
       id="linearGradient4730"
       gradientUnits="userSpaceOnUse"
       gradientTransform="matrix(1.1621146,0,0,0.86050035,155.58088,798.62607)"
       x1="48.888289"
       y1="90.157752"
       x2="99.629566"
       y2="86.570913" />
    <linearGradient
       inkscape:collect="always"
       xlink:href="#linearGradient1502"
       id="linearGradient4732"
       gradientUnits="userSpaceOnUse"
       gradientTransform="matrix(1.6363278,0,0,0.61112449,155.58088,798.62607)"
       x1="57.724482"
       y1="184.34286"
       x2="55.957408"
       y2="144.17274" />
    <linearGradient
       inkscape:collect="always"
       xlink:href="#linearGradient1461"
       id="linearGradient4734"
       gradientUnits="userSpaceOnUse"
       gradientTransform="matrix(1.1625356,0,0,0.86018868,155.58088,798.62607)"
       x1="55.045112"
       y1="85.877013"
       x2="109.27901"
       y2="88.113353" />
    <linearGradient
       inkscape:collect="always"
       xlink:href="#linearGradient1494"
       id="linearGradient4736"
       gradientUnits="userSpaceOnUse"
       gradientTransform="matrix(1.1618002,0,0,0.86073318,155.58088,798.62607)"
       x1="66.679364"
       y1="28.158081"
       x2="66.679364"
       y2="107.53253" />
    <linearGradient
       inkscape:collect="always"
       xlink:href="#linearGradient1461"
       id="linearGradient4738"
       gradientUnits="userSpaceOnUse"
       gradientTransform="matrix(1.1618002,0,0,0.86073318,155.58088,798.62607)"
       x1="47.242914"
       y1="77.450201"
       x2="109.62949"
       y2="76.10269" />
    <linearGradient
       inkscape:collect="always"
       xlink:href="#linearGradient1494"
       id="linearGradient4740"
       gradientUnits="userSpaceOnUse"
       gradientTransform="matrix(1.1795991,0,0,0.84774561,155.58088,798.62607)"
       x1="71.901497"
       y1="69.209006"
       x2="85.293271"
       y2="102.17883" />
    <linearGradient
       inkscape:collect="always"
       xlink:href="#linearGradient1461"
       id="linearGradient4742"
       gradientUnits="userSpaceOnUse"
       gradientTransform="matrix(0.94258534,0,0,1.0609119,155.58088,798.62607)"
       x1="55.239422"
       y1="97.356404"
       x2="25.401431"
       y2="29.790384" />
    <linearGradient
       inkscape:collect="always"
       xlink:href="#linearGradient1494"
       id="linearGradient4744"
       gradientUnits="userSpaceOnUse"
       gradientTransform="matrix(1.2892437,0,0,0.77564852,155.58088,798.62607)"
       x1="53.64779"
       y1="101.89593"
       x2="53.64779"
       y2="160.91232" />
    <linearGradient
       inkscape:collect="always"
       xlink:href="#linearGradient1494"
       id="linearGradient4746"
       gradientUnits="userSpaceOnUse"
       gradientTransform="matrix(1.2039799,0,0,0.83057864,155.58088,798.62607)"
       x1="69.36359"
       y1="56.763401"
       x2="71.684405"
       y2="101.294" />
    <linearGradient
       inkscape:collect="always"
       xlink:href="#linearGradient1551"
       id="linearGradient4748"
       gradientUnits="userSpaceOnUse"
       gradientTransform="matrix(1.7094086,0,0,0.58499763,155.58088,798.62607)"
       x1="28.813946"
       y1="221.79577"
       x2="10.582993"
       y2="235.65098" />
  </defs>
  <sodipodi:namedview
     id="base"
     pagecolor="#ffffff"
     bordercolor="#666666"
     borderopacity="1.0"
     inkscape:pageopacity="0.0"
     inkscape:pageshadow="2"
     inkscape:zoom="1.0643267"
     inkscape:cx="42.220931"
     inkscape:cy="216.28793"
     inkscape:document-units="px"
     inkscape:current-layer="layer1"
     showgrid="false"
     inkscape:window-width="1544"
     inkscape:window-height="1010"
     inkscape:window-x="0"
     inkscape:window-y="0"
     inkscape:window-maximized="0" />
  <metadata
     id="metadata7">
    <rdf:RDF>
      <cc:Work
         rdf:about="">
        <dc:format>image/svg+xml</dc:format>
        <dc:type
           rdf:resource="http://purl.org/dc/dcmitype/StillImage" />
        <dc:title></dc:title>
      </cc:Work>
    </rdf:RDF>
  </metadata>
  <g
     inkscape:label="Layer 1"
     inkscape:groupmode="layer"
     id="layer1"
     transform="translate(0,-540.36218)">
    <flowRoot
       xml:space="preserve"
       id="flowRoot3558"
       style="fill:black;stroke:none;stroke-opacity:1;stroke-width:1px;stroke-linejoin:miter;stroke-linecap:butt;fill-opacity:1;font-family:American Typewriter;font-style:normal;font-weight:normal;font-size:36px;line-height:125%;letter-spacing:0px;word-spacing:0px;-inkscape-font-specification:American Typewriter;font-stretch:normal;font-variant:normal"><flowRegion
         id="flowRegion3560"><rect
           id="rect3562"
           width="12.214295"
           height="56.373669"
           x="439.71463"
           y="529.85168" /></flowRegion><flowPara
         id="flowPara3564"></flowPara></flowRoot>    <text
       xml:space="preserve"
       style="font-size:29.34836197px;font-style:normal;font-variant:normal;font-weight:bold;font-stretch:normal;line-height:125%;letter-spacing:0px;word-spacing:0px;fill:#535353;fill-opacity:1;stroke:none;font-family:American Typewriter;-inkscape-font-specification:American Typewriter Bold"
       x="26.3354"
       y="782.69489"
       id="text3089"
       sodipodi:linespacing="125%"
       inkscape:export-filename="/Users/lrees/Desktop/wsgiserialize.png"
       inkscape:export-xdpi="9.3313932"
       inkscape:export-ydpi="9.3313932"
       transform="scale(0.96931611,1.0316552)"><tspan
         sodipodi:role="line"
         id="tspan3091"
         x="26.3354"
         y="782.69489"
         style="font-size:163.04644775px;font-weight:bold;fill:#535353;fill-opacity:1;-inkscape-font-specification:American Typewriter Bold">WSGi</tspan></text>
    <g
       id="g4689"
       transform="matrix(1.0616673,0.4950636,-0.46649887,1.0004101,560.64535,-171.83057)">
      <g
         transform="matrix(1.084455,0,0,1.043417,55.06265,688.61177)"
         style="fill:url(#linearGradient4722)"
         id="g1583">
        <path
           style="fill:url(#linearGradient4712);fill-opacity:1;fill-rule:evenodd;stroke-width:1pt"
           id="path1557"
           d="m 187.3221,244.31589 34.25383,-85.18386 0,-10.817 -73.46544,-12.16912 -41.46516,80.22606 0.90142,10.36629 79.77535,17.57763 z"
           inkscape:connector-curvature="0" />
        <path
           style="fill:url(#linearGradient4714);fill-opacity:1;fill-rule:evenodd;stroke-width:1pt"
           id="path1562"
           d="m 108.34375,216.71875 c 0.72103,2.87033 -0.69789,8.43124 2.87454,9.09037 25.02098,5.51154 50.04197,11.02309 75.06296,16.53463 11.19792,-27.89583 22.39583,-55.79167 33.59375,-83.6875 -0.15593,-2.83108 0.7119,-7.01428 -0.9743,-9.0318 -23.2794,-3.8644 -46.5588,-7.7288 -69.8382,-11.5932 -13.57292,26.22917 -27.14583,52.45833 -40.71875,78.6875 z"
           inkscape:connector-curvature="0" />
        <path
           style="fill:url(#linearGradient4716);fill-opacity:1;fill-rule:evenodd;stroke-width:1pt"
           id="path1567"
           d="m 146.6875,134.03125 c -14.05849,27.51462 -28.35222,55.01917 -42.28125,82.53125 0.49896,4.07347 -0.12248,8.95914 2.21875,12.34375 27.35479,6.00744 54.7046,12.03864 82.0625,18.03125 11.712,-29.26578 23.51718,-58.52116 35.125,-87.8125 0,-4.27083 0,-8.54167 0,-12.8125 -25.65035,-4.18856 -51.28958,-8.45093 -76.9375,-12.65625 l -0.1875,0.375 z"
           inkscape:connector-curvature="0" />
        <path
           style="fill:url(#linearGradient4718);fill-opacity:1;fill-rule:evenodd;stroke-width:1pt"
           id="path1576"
           d="m 145.4375,131.53125 c -14.39455,28.38822 -29.01667,56.77031 -43.28125,85.15625 0.48682,4.95066 0.042,10.80189 3.96875,14.46875 27.97978,6.13251 55.95469,12.28823 83.9375,18.40625 12.00532,-30.14012 24.09952,-60.27155 36,-90.4375 0,-4.9375 0,-9.875 0,-14.8125 -26.81685,-4.35623 -53.62306,-8.78336 -80.4375,-13.15625 l -0.1875,0.375 z"
           inkscape:connector-curvature="0" />
        <path
           style="fill:url(#linearGradient4720);fill-opacity:1;fill-rule:evenodd;stroke-width:1pt"
           id="path1582"
           d="m 109.46821,217.57928 c 0.31941,3.11898 -0.13182,8.49828 4.37478,8.34292 23.91675,5.28152 47.83348,10.56305 71.75022,15.84458 11.05208,-27.5625 22.10417,-55.125 33.15625,-82.6875 0.0414,-2.97207 1.15495,-8.4234 -3.42825,-8.15974 -21.87809,-3.64467 -43.75617,-7.28934 -65.63425,-10.93401 -13.40625,25.86458 -26.8125,51.72917 -40.21875,77.59375 z"
           inkscape:connector-curvature="0" />
      </g>
      <path
         style="fill:#525252;fill-rule:evenodd;stroke-width:1pt"
         id="path1432"
         d="m 256.98522,942.82258 37.14673,-92.37805 0,-11.73055 -79.66997,-13.19687 -44.9671,87.00156 0.97755,11.24177 86.51279,19.06214 z"
         inkscape:connector-curvature="0" />
      <path
         style="fill:url(#linearGradient4724);fill-rule:evenodd;stroke-width:1pt"
         sodipodi:nodetypes="ccccc"
         id="path1433"
         d="m 170.44278,912.17305 86.05367,19.40776 37.14673,-91.88928 -78.81462,-13.31906 -44.38578,85.80058 z"
         inkscape:connector-curvature="0" />
      <path
         style="fill:url(#linearGradient4726);fill-opacity:1;fill-rule:evenodd;stroke-width:1pt"
         sodipodi:nodetypes="cccccccccccczc"
         id="path1470"
         d="m 197.35493,875.86071 -7.82036,2.93264 -12.70809,24.92742 5.86527,10.26422 34.21409,7.82036 5.86528,-2.93263 3.91018,1.46632 1.73412,4.00385 21.99478,4.88772 9.99643,-9.86912 10.753,-26.39373 -7.33159,0 c -2.44387,0 -18.7363,10.18277 -38.12428,5.3765 -19.87677,-4.80626 -26.23081,-19.22506 -28.34883,-22.48355 z"
         inkscape:connector-curvature="0" />
      <path
         style="fill:url(#linearGradient4728);fill-rule:evenodd;stroke:url(#linearGradient4730);stroke-width:0.89126021"
         sodipodi:nodetypes="czzzz"
         id="path1439"
         d="m 258.0726,840.94685 c -19.1816,-4.7234 -48.73165,-0.23041 -57.37201,20.04564 -8.64037,19.58483 12.26931,35.02228 26.2667,37.67199 15.03424,2.64972 40.78252,-2.88012 49.42288,-19.70003 8.98598,-16.81991 1.20966,-33.2942 -18.31757,-38.0176 z"
         inkscape:connector-curvature="0" />
      <path
         style="fill:url(#linearGradient4732);fill-opacity:1;fill-rule:evenodd;stroke-width:1pt"
         sodipodi:nodetypes="ccccccccc"
         id="path1554"
         d="m 263.81586,907.07726 -5.07372,0 c -21.85603,12.48916 -58.15267,1.17086 -65.56811,-16.39203 l -8.19601,0.39028 3.12229,-7.80572 7.41544,-1.95144 c 6.24458,14.96098 32.78406,31.48311 65.56811,16.78232 l 7.02515,-0.39029 -4.29315,9.36688 z"
         inkscape:connector-curvature="0" />
      <path
         style="fill-opacity:0.24999994;fill-rule:evenodd;stroke:url(#linearGradient4734);stroke-width:0.72149634"
         sodipodi:nodetypes="czzzz"
         id="path1438"
         d="m 258.31699,838.79478 c -19.18161,-4.72339 -48.73165,-0.2304 -57.37202,20.04565 -8.64036,19.58483 12.26932,35.02228 26.26671,37.67199 15.03424,2.64971 40.78252,-2.88012 49.42288,-19.70003 8.98598,-16.81991 1.20965,-33.2942 -18.31757,-38.01761 z"
         inkscape:connector-curvature="0" />
      <path
         style="fill:url(#linearGradient4736);fill-rule:evenodd;stroke:url(#linearGradient4738);stroke-width:1.01858306"
         sodipodi:nodetypes="czzzz"
         id="path1437"
         d="m 258.87186,835.81475 c -19.18161,-4.72339 -48.73166,-0.2304 -57.37202,20.04565 -8.64036,19.58483 12.26931,35.02228 26.26671,37.67199 15.03423,2.64971 40.78251,-2.88012 49.42289,-19.70003 8.98596,-16.81991 1.20964,-33.29421 -18.31758,-38.01761 z"
         inkscape:connector-curvature="0" />
      <path
         style="fill-opacity:0.45833333;fill-rule:evenodd;stroke-width:1pt"
         sodipodi:nodetypes="czzzz"
         id="path1435"
         d="m 239.20433,850.54668 c -8.8945,0.79032 -13.65944,7.54705 -13.33193,12.05697 0.27745,3.8205 2.48269,11.91919 14.99661,10.86604 12.34156,-1.04064 14.22369,-9.32065 13.55147,-13.80553 -0.27745,-3.8205 -6.85123,-10.04259 -15.21615,-9.11748 z"
         inkscape:connector-curvature="0" />
      <path
         style="fill:url(#linearGradient4740);fill-rule:evenodd;stroke-width:1pt"
         sodipodi:nodetypes="czzzz"
         id="path1436"
         d="m 239.1979,850.63831 c -8.8945,0.79031 -13.65945,7.54704 -13.33193,12.05696 0.27744,3.8205 5.9394,9.41575 14.98122,8.26822 9.05433,-0.97518 14.23908,-6.72283 13.56686,-11.20771 -0.27745,-3.8205 -6.85123,-10.04258 -15.21615,-9.11747 z"
         inkscape:connector-curvature="0" />
      <path
         style="fill:url(#linearGradient4742);fill-rule:evenodd;stroke:none"
         sodipodi:nodetypes="cccccccccc"
         id="path1440"
         d="m 198.44064,879.56655 -9.0423,7.82037 c -6.23573,5.60984 -0.53199,18.55688 5.62089,22.48355 l 0.24439,5.62088 4.64334,1.22194 2.68825,-4.15457 11.97493,2.68825 5.13212,-12.21932 c -18.20679,3.46214 -23.94987,-9.694 -14.05222,-14.66319 -3.62507,-2.68825 -5.78381,-5.3765 -7.2094,-8.79791 z"
         inkscape:connector-curvature="0" />
      <path
         style="fill-opacity:0.30208333;fill-rule:evenodd;stroke-width:1pt"
         sodipodi:nodetypes="czzzccz"
         id="path1434"
         d="m 217.29186,887.82975 c -3.03637,1.43969 -7.48391,0.23041 -10.01978,2.4193 -2.68377,2.3617 -4.60397,6.62428 0.82794,10.54125 5.62961,4.08977 10.70042,1.81218 14.90818,-2.07369 l 26.38416,-24.36583 -3.30824,-0.17281 -28.79226,13.65178 z"
         inkscape:connector-curvature="0" />
      <path
         style="fill:#fff8d2;fill-opacity:0.54166667;fill-rule:evenodd;stroke-width:1pt"
         sodipodi:nodetypes="czzzz"
         id="path1441"
         d="m 240.22964,856.42944 c -2.31109,-0.0358 -6.5239,0.99661 -6.56668,4.14737 0.0794,3.15077 4.97647,4.82378 7.77633,4.49299 2.92205,-0.33079 5.55863,-1.98284 5.35703,-5.01141 -0.20161,-2.90638 -4.37779,-3.59316 -6.56668,-3.62895 z"
         inkscape:connector-curvature="0" />
      <path
         style="fill:url(#linearGradient4744);fill-rule:evenodd;stroke-width:1pt"
         sodipodi:nodetypes="czzzccz"
         id="path1499"
         d="m 216.2578,886.91967 c -3.24385,1.43969 -7.51712,0.23041 -10.36844,2.4193 -3.02413,2.3617 -5.55863,6.62428 -0.69122,10.54124 5.04021,4.08977 10.43926,1.81219 15.20704,-2.07368 l 29.89566,-24.36583 -3.28334,-0.17281 -30.7597,13.65178 z"
         inkscape:connector-curvature="0" />
      <path
         style="fill:url(#linearGradient4746);fill-opacity:1;fill-rule:evenodd;stroke-width:1pt"
         id="path1508"
         d="m 242.19861,853.52952 c -0.96764,0 -1.75069,0.53174 -1.75069,1.18834 0,0.65661 0.78305,1.18835 1.75069,1.18835 0.96763,0 1.75069,-0.53174 1.75068,-1.18835 0,-0.6566 -0.78305,-1.18834 -1.75068,-1.18834 z m -7.88341,1.41116 c -0.96764,0 -1.75069,0.53174 -1.75069,1.18835 0,0.6566 0.78305,1.18834 1.75069,1.18834 0.96763,0 1.7613,-0.53174 1.7613,-1.18834 0,-0.65661 -0.79367,-1.18835 -1.7613,-1.18835 z m 15.09837,2.62073 c -0.96763,0 -1.7613,0.53174 -1.7613,1.18834 0,0.65661 0.79367,1.18835 1.7613,1.18835 0.96763,0 1.75069,-0.53174 1.75069,-1.18835 0,-0.6566 -0.78305,-1.18835 -1.75069,-1.18834 z m -17.84643,3.18307 c -0.96763,0 -1.75068,0.53174 -1.75068,1.18835 0,0.6566 0.78305,1.18835 1.75068,1.18834 0.96764,0 1.75069,-0.53174 1.75069,-1.18834 0,-0.65661 -0.78305,-1.18835 -1.75069,-1.18835 z m 14.41932,3.54382 c -0.96763,0 -1.75069,0.53174 -1.75069,1.18835 0,0.6566 0.78306,1.18835 1.75069,1.18834 0.96763,0 1.75069,-0.53174 1.75069,-1.18834 0,-0.65661 -0.78305,-1.18835 -1.75069,-1.18835 z m -8.18049,1.58093 c -0.96764,0 -1.7613,0.53174 -1.7613,1.18834 0,0.65661 0.79366,1.19896 1.7613,1.19896 0.96763,0 1.75068,-0.54235 1.75069,-1.19896 0,-0.6566 -0.78306,-1.18834 -1.75069,-1.18834 z"
         inkscape:connector-curvature="0" />
      <path
         style="fill:url(#linearGradient4748);fill-opacity:1;fill-rule:evenodd;stroke-width:1pt"
         id="path1589"
         d="m 170.58088,913.93857 0.625,8.75 69.6875,15.3125 -70.3125,-24.0625 z"
         inkscape:connector-curvature="0" />
    </g>
  </g>
  <style
     id="style4"
     type="text/css">
.ph {fill:#fff000;stroke:#f0f000}
.ph1 {fill:#fff000;stroke:#f0f000;stroke-width:3}
</style>
</svg>
